<svg width="256" height="256" viewBox="0 0 256 256" fill="none" xmlns="http://www.w3.org/2000/svg">
<g clip-path="url(#clip0_624_89)">
<path d="M183.846 38.9347C183.172 38.5418 182.494 38.1606 181.805 37.7985C161.759 27.1882 136.301 30.2846 119.409 47.0802C101.938 64.4496 99.2076 90.9273 111.216 111.147C107.447 108.936 103.899 106.221 100.66 103.001C79.9518 82.4121 79.9518 49.0289 100.66 28.4399C121.369 7.85078 154.945 7.85078 175.654 28.4399C178.415 31.1858 180.809 34.159 182.827 37.3017C183.184 37.8409 183.521 38.3839 183.846 38.9347Z" fill="#000F26"/>
<path d="M208.734 65.7244C208.3 66.4677 207.82 67.1879 207.282 67.8811C206.743 68.582 206.15 69.256 205.507 69.8953C201.305 74.074 195.719 76.0305 190.214 75.7724C191.508 69.1405 191.508 62.3083 190.214 55.6763C195.114 55.4452 200.084 56.9742 204.078 60.2594C204.57 60.6638 205.046 61.0951 205.507 61.5534C206.79 62.8282 207.866 64.2339 208.734 65.7244Z" fill="#000F26"/>
<path d="M224 157.694C224 204.807 161.848 243 85.1771 243C82.7212 243 80.2808 242.962 77.856 242.881C151.126 240.543 209.358 203.297 209.358 157.694C209.358 112.09 151.126 74.8443 77.856 72.5066C80.2808 72.4257 82.7212 72.3872 85.1771 72.3872C161.848 72.3872 224 110.581 224 157.694Z" fill="url(#paint0_linear_624_89)"/>
<path d="M209.358 157.694C209.358 203.297 151.126 240.543 77.8561 242.881C75.4312 242.962 72.9908 243 70.5349 243C59.8011 243 49.354 242.253 39.3213 240.836C41.7888 240.485 44.2292 240.1 46.6424 239.669H46.6463C104.569 229.405 146.931 196.588 146.931 157.694C146.931 118.799 104.569 85.9823 46.6463 75.7186H46.6424C44.2292 75.2872 41.7888 74.9021 39.3213 74.5516C49.354 73.1344 59.8011 72.3872 70.5349 72.3872C72.9908 72.3872 75.4312 72.4257 77.8561 72.5066C151.126 74.8443 209.358 112.09 209.358 157.694Z" fill="url(#paint1_linear_624_89)"/>
<path d="M146.93 157.694C146.93 196.588 104.568 229.405 46.6462 239.669H46.6423C44.229 240.1 41.7886 240.485 39.3211 240.836H39.3173C36.8498 240.489 34.4133 240.1 32 239.673C34.4675 239.234 36.9118 238.756 39.3211 238.236H39.325C93.4589 226.597 132.288 194.932 132.288 157.694C132.288 120.455 93.4589 88.79 39.325 77.1514H39.3211C36.9118 76.6315 34.4675 76.1539 32 75.7148C34.4133 75.2874 36.8498 74.8984 39.3173 74.5518H39.3211C41.7886 74.9022 44.229 75.2874 46.6423 75.7187H46.6462C104.568 85.9824 146.93 118.799 146.93 157.694Z" fill="url(#paint2_linear_624_89)"/>
</g>
<defs>
<linearGradient id="paint0_linear_624_89" x1="150.928" y1="243" x2="150.928" y2="72.3872" gradientUnits="userSpaceOnUse">
<stop stop-color="#FFB9B3"/>
<stop offset="0.5" stop-color="#FF7F73"/>
<stop offset="1" stop-color="#FF4433"/>
</linearGradient>
<linearGradient id="paint1_linear_624_89" x1="124.34" y1="72.3872" x2="124.34" y2="243" gradientUnits="userSpaceOnUse">
<stop stop-color="#FF7366"/>
<stop offset="1" stop-color="#CC3629"/>
</linearGradient>
<linearGradient id="paint2_linear_624_89" x1="89.4652" y1="74.5518" x2="89.4652" y2="240.836" gradientUnits="userSpaceOnUse">
<stop stop-color="white"/>
<stop offset="1" stop-color="#7D8CB2"/>
</linearGradient>
<clipPath id="clip0_624_89">
<rect width="192" height="230" fill="white" transform="translate(32 13)"/>
</clipPath>
</defs>
</svg>
